<svg width="25" height="23" viewBox="0 0 25 23" fill="none" xmlns="http://www.w3.org/2000/svg">
<mask id="path-1-inside-1_8099_3961" fill="white">
<path d="M2.76758 13L13.7676 13.001C14.8214 13.001 15.6857 13.8165 15.7621 14.8517L15.7676 15.001V17.5C15.7666 21.7 11.4806 23 8.26758 23C5.11884 23 0.938628 21.7515 0.77268 17.7485L0.767578 17.5V15C0.767578 13.9462 1.58397 13.0819 2.61839 13.0055L2.76758 13ZM22.7676 13L22.9168 13.0055C23.8995 13.0781 24.6854 13.8617 24.7615 14.8434L24.7676 15V17C24.7666 20.759 21.3376 22 18.7676 22C17.7096 22 16.5086 21.785 15.4586 21.275C15.7766 20.897 16.0456 20.477 16.2556 20.007C17.2132 20.427 18.2466 20.4925 18.6834 20.4993L18.9719 20.4963C20.0076 20.4607 23.1023 20.1117 23.2612 17.2326L23.2676 17V15C23.2676 14.7547 23.0898 14.5504 22.8572 14.5081L22.7676 14.5L16.7166 14.501C16.6326 13.9996 16.423 13.5434 16.1221 13.1605L15.9876 13.001L22.7676 13ZM2.76758 14.5L2.66692 14.51C2.54254 14.5353 2.45758 14.6028 2.41358 14.646C2.37038 14.69 2.30286 14.7743 2.27758 14.899L2.26758 15V17.5C2.26758 18.839 2.85458 19.829 4.06258 20.525C5.05894 21.1007 6.45193 21.4479 7.92609 21.4946L8.26758 21.5L8.70245 21.4898C10.223 21.4219 14.0816 20.9332 14.2611 17.7323L14.2676 17.499V15.001C14.2676 14.7566 14.0898 14.5516 13.8572 14.5091L13.7676 14.501L2.76758 14.5ZM8.26758 0C11.3056 0 13.7676 2.463 13.7676 5.5C13.7676 8.537 11.3056 11 8.26758 11C5.22958 11 2.76758 8.537 2.76758 5.5C2.76758 2.463 5.22958 0 8.26758 0ZM19.2676 2C21.7526 2 23.7676 4.015 23.7676 6.5C23.7676 8.985 21.7526 11 19.2676 11C16.7826 11 14.7676 8.985 14.7676 6.5C14.7676 4.015 16.7826 2 19.2676 2ZM8.26758 1.5C6.06158 1.5 4.26758 3.294 4.26758 5.5C4.26758 7.706 6.06158 9.5 8.26758 9.5C10.4736 9.5 12.2676 7.706 12.2676 5.5C12.2676 3.294 10.4736 1.5 8.26758 1.5ZM19.2676 3.5C17.6136 3.5 16.2676 4.846 16.2676 6.5C16.2676 8.154 17.6136 9.5 19.2676 9.5C20.9216 9.5 22.2676 8.154 22.2676 6.5C22.2676 4.846 20.9216 3.5 19.2676 3.5Z"/>
</mask>
<path d="M2.76758 13L2.76773 11.3L2.73639 11.3L2.70507 11.3011L2.76758 13ZM13.7676 13.001L13.7674 14.701H13.7676V13.001ZM15.7621 14.8517L17.4609 14.7892L17.4598 14.7579L17.4575 14.7266L15.7621 14.8517ZM15.7676 15.001H17.4676V14.9698L17.4664 14.9385L15.7676 15.001ZM15.7676 17.5L17.4676 17.5004V17.5H15.7676ZM0.77268 17.7485L-0.926962 17.7834L-0.926598 17.8012L-0.925861 17.8189L0.77268 17.7485ZM0.767578 17.5H-0.932422V17.5174L-0.932064 17.5349L0.767578 17.5ZM2.61839 13.0055L2.55588 11.3066L2.5245 11.3078L2.49318 11.3101L2.61839 13.0055ZM22.7676 13L22.8301 11.3011L22.7987 11.3L22.7673 11.3L22.7676 13ZM22.9168 13.0055L23.042 11.3101L23.0107 11.3078L22.9793 11.3066L22.9168 13.0055ZM24.7615 14.8434L26.4603 14.7778L26.459 14.7449L26.4564 14.712L24.7615 14.8434ZM24.7676 15H26.4676V14.9672L26.4663 14.9344L24.7676 15ZM24.7676 17L26.4676 17.0005V17H24.7676ZM15.4586 21.275L14.1577 20.1806L12.7527 21.8507L14.7158 22.8042L15.4586 21.275ZM16.2556 20.007L16.9384 18.4502L15.3922 17.772L14.7035 19.3135L16.2556 20.007ZM18.6834 20.4993L18.6567 22.1991L18.6788 22.1995L18.701 22.1992L18.6834 20.4993ZM18.9719 20.4963L18.9896 22.1962L19.01 22.196L19.0304 22.1953L18.9719 20.4963ZM23.2612 17.2326L24.9586 17.3263L24.9599 17.3027L24.9606 17.279L23.2612 17.2326ZM23.2676 17L24.9669 17.0464L24.9676 17.0232V17H23.2676ZM22.8572 14.5081L23.1617 12.8356L23.0861 12.8218L23.0095 12.8149L22.8572 14.5081ZM22.7676 14.5L22.9199 12.8068L22.8438 12.8L22.7673 12.8L22.7676 14.5ZM16.7166 14.501L15.0399 14.7819L15.2777 16.2012L16.7169 16.201L16.7166 14.501ZM16.1221 13.1605L17.4586 12.11L17.4406 12.0871L17.4218 12.0648L16.1221 13.1605ZM15.9876 13.001L15.9873 11.301L12.3315 11.3015L14.6878 14.0967L15.9876 13.001ZM2.76758 14.5L2.76773 12.8L2.68341 12.8L2.59951 12.8083L2.76758 14.5ZM2.66692 14.51L2.49885 12.8183L2.41294 12.8269L2.32833 12.8441L2.66692 14.51ZM2.41358 14.646L1.22257 13.4329L1.21145 13.4439L1.20052 13.455L2.41358 14.646ZM2.27758 14.899L0.611502 14.561L0.594344 14.6456L0.585843 14.7315L2.27758 14.899ZM2.26758 15L0.575843 14.8326L0.567578 14.9161V15H2.26758ZM4.06258 20.525L4.9131 19.0531L4.91126 19.052L4.06258 20.525ZM7.92609 21.4946L7.8723 23.1937L7.88575 23.1942L7.8992 23.1944L7.92609 21.4946ZM8.26758 21.5L8.24069 23.1998L8.2741 23.2003L8.3075 23.1995L8.26758 21.5ZM8.70245 21.4898L8.74237 23.1893L8.76032 23.1889L8.77826 23.1881L8.70245 21.4898ZM14.2611 17.7323L15.9584 17.8275L15.9598 17.8035L15.9604 17.7795L14.2611 17.7323ZM14.2676 17.499L15.9669 17.5462L15.9676 17.5226V17.499H14.2676ZM13.8572 14.5091L14.1628 12.8368L14.087 12.8229L14.0102 12.816L13.8572 14.5091ZM13.7676 14.501L13.9206 12.8079L13.8443 12.801L13.7677 12.801L13.7676 14.501ZM2.76742 14.7L13.7674 14.701L13.7677 11.301L2.76773 11.3L2.76742 14.7ZM13.7676 14.701C13.9249 14.701 14.0554 14.8234 14.0667 14.9768L17.4575 14.7266C17.316 12.8096 15.7179 11.301 13.7676 11.301V14.701ZM14.0632 14.9141L14.0687 15.0635L17.4664 14.9385L17.4609 14.7892L14.0632 14.9141ZM14.0676 15.001V17.5H17.4676V15.001H14.0676ZM14.0676 17.4996C14.0672 18.8873 13.4174 19.7497 12.3725 20.3525C11.2421 21.0047 9.69147 21.3 8.26758 21.3V24.7C10.0567 24.7 12.2556 24.3453 14.0716 23.2975C15.9733 22.2003 17.4669 20.3127 17.4676 17.5004L14.0676 17.4996ZM8.26758 21.3C6.87443 21.3 5.35486 21.0171 4.22852 20.3901C3.17466 19.8033 2.52483 18.9713 2.47122 17.6781L-0.925861 17.8189C-0.813522 20.5288 0.709731 22.3224 2.57465 23.3607C4.36708 24.3586 6.51198 24.7 8.26758 24.7V21.3ZM2.47232 17.7136L2.46722 17.4651L-0.932064 17.5349L-0.926962 17.7834L2.47232 17.7136ZM2.46758 17.5V15H-0.932422V17.5H2.46758ZM2.46758 15C2.46758 14.8433 2.59028 14.7122 2.7436 14.7009L2.49318 11.3101C0.577674 11.4516 -0.932422 13.0491 -0.932422 15H2.46758ZM2.68089 14.7043L2.83009 14.6989L2.70507 11.3011L2.55588 11.3066L2.68089 14.7043ZM22.7051 14.6989L22.8543 14.7043L22.9793 11.3066L22.8301 11.3011L22.7051 14.6989ZM22.7916 14.7009C22.9362 14.7116 23.0554 14.8304 23.0666 14.9749L26.4564 14.712C26.3154 12.8931 24.8628 11.4446 23.042 11.3101L22.7916 14.7009ZM23.0628 14.909L23.0688 15.0656L26.4663 14.9344L26.4603 14.7778L23.0628 14.909ZM23.0676 15V17H26.4676V15H23.0676ZM23.0676 16.9995C23.0672 18.2633 22.535 19.0006 21.7927 19.492C20.9683 20.0376 19.8235 20.3 18.7676 20.3V23.7C20.2816 23.7 22.1363 23.3419 23.6693 22.3272C25.2841 21.2584 26.4669 19.4957 26.4676 17.0005L23.0676 16.9995ZM18.7676 20.3C17.9169 20.3 16.9787 20.1234 16.2013 19.7458L14.7158 22.8042C16.0385 23.4466 17.5023 23.7 18.7676 23.7V20.3ZM16.7595 22.3694C17.1743 21.8763 17.5298 21.3224 17.8077 20.7005L14.7035 19.3135C14.5613 19.6316 14.3789 19.9177 14.1577 20.1806L16.7595 22.3694ZM15.5728 21.5638C16.8375 22.1185 18.1375 22.191 18.6567 22.1991L18.7101 18.7995C18.3556 18.794 17.5889 18.7355 16.9384 18.4502L15.5728 21.5638ZM18.701 22.1992L18.9896 22.1962L18.9543 18.7964L18.6657 18.7994L18.701 22.1992ZM19.0304 22.1953C19.6343 22.1745 20.9501 22.0656 22.1925 21.4578C23.5245 20.8061 24.8373 19.5252 24.9586 17.3263L21.5638 17.1389C21.5263 17.819 21.2123 18.1522 20.6983 18.4037C20.0947 18.699 19.3452 18.7825 18.9134 18.7973L19.0304 22.1953ZM24.9606 17.279L24.9669 17.0464L21.5682 16.9536L21.5619 17.1862L24.9606 17.279ZM24.9676 17V15H21.5676V17H24.9676ZM24.9676 15C24.9676 13.9151 24.1845 13.0218 23.1617 12.8356L22.5526 16.1806C21.9951 16.0791 21.5676 15.5943 21.5676 15H24.9676ZM23.0095 12.8149L22.9199 12.8068L22.6152 16.1932L22.7048 16.2012L23.0095 12.8149ZM22.7673 12.8L16.7163 12.801L16.7169 16.201L22.7679 16.2L22.7673 12.8ZM18.3932 14.2201C18.2603 13.4269 17.9287 12.7081 17.4586 12.11L14.7855 14.2111C14.9173 14.3788 15.0048 14.5723 15.0399 14.7819L18.3932 14.2201ZM17.4218 12.0648L17.2874 11.9053L14.6878 14.0967L14.8223 14.2562L17.4218 12.0648ZM15.9878 14.701L22.7678 14.7L22.7673 11.3L15.9873 11.301L15.9878 14.701ZM2.59951 12.8083L2.49885 12.8183L2.83499 16.2017L2.93565 16.1917L2.59951 12.8083ZM2.32833 12.8441C1.76987 12.9576 1.40319 13.2556 1.22257 13.4329L3.60458 15.8591C3.51196 15.95 3.3152 16.113 3.00551 16.1759L2.32833 12.8441ZM1.20052 13.455C1.02603 13.6327 0.725471 13.9991 0.611502 14.561L3.94365 15.2369C3.88025 15.5495 3.71472 15.7473 3.62664 15.837L1.20052 13.455ZM0.585843 14.7315L0.575843 14.8326L3.95931 15.1674L3.96931 15.0664L0.585843 14.7315ZM0.567578 15V17.5H3.96758V15H0.567578ZM0.567578 17.5C0.567578 18.4265 0.77361 19.318 1.25002 20.121C1.72427 20.9204 2.40792 21.5336 3.21389 21.998L4.91126 19.052C4.50923 18.8204 4.29539 18.5906 4.17414 18.3862C4.05505 18.1855 3.96758 17.9125 3.96758 17.5H0.567578ZM3.21206 21.9969C4.51241 22.7483 6.19827 23.1408 7.8723 23.1937L7.97988 19.7955C6.70558 19.7551 5.60546 19.4531 4.9131 19.0531L3.21206 21.9969ZM7.8992 23.1944L8.24069 23.1998L8.29447 19.8002L7.95298 19.7948L7.8992 23.1944ZM8.3075 23.1995L8.74237 23.1893L8.66252 19.7903L8.22765 19.8005L8.3075 23.1995ZM8.77826 23.1881C9.6121 23.1509 11.2125 22.9989 12.6835 22.3357C14.208 21.6483 15.821 20.2792 15.9584 17.8275L12.5638 17.6371C12.5218 18.3863 12.1157 18.862 11.2859 19.2362C10.4025 19.6345 9.31338 19.7608 8.62664 19.7915L8.77826 23.1881ZM15.9604 17.7795L15.9669 17.5462L12.5682 17.4518L12.5618 17.6851L15.9604 17.7795ZM15.9676 17.499V15.001H12.5676V17.499H15.9676ZM15.9676 15.001C15.9676 13.9178 15.1854 13.0237 14.1628 12.8368L13.5515 16.1814C12.9942 16.0795 12.5676 15.5953 12.5676 15.001H15.9676ZM14.0102 12.816L13.9206 12.8079L13.6146 16.1941L13.7041 16.2022L14.0102 12.816ZM13.7677 12.801L2.76773 12.8L2.76742 16.2L13.7674 16.201L13.7677 12.801ZM8.26758 1.7C10.3665 1.7 12.0676 3.40168 12.0676 5.5H15.4676C15.4676 1.52432 12.2447 -1.7 8.26758 -1.7V1.7ZM12.0676 5.5C12.0676 7.59832 10.3665 9.3 8.26758 9.3V12.7C12.2447 12.7 15.4676 9.47568 15.4676 5.5H12.0676ZM8.26758 9.3C6.16866 9.3 4.46758 7.59832 4.46758 5.5H1.06758C1.06758 9.47568 4.29049 12.7 8.26758 12.7V9.3ZM4.46758 5.5C4.46758 3.40168 6.16866 1.7 8.26758 1.7V-1.7C4.29049 -1.7 1.06758 1.52432 1.06758 5.5H4.46758ZM19.2676 3.7C20.8137 3.7 22.0676 4.95388 22.0676 6.5H25.4676C25.4676 3.07612 22.6915 0.3 19.2676 0.3V3.7ZM22.0676 6.5C22.0676 8.04612 20.8137 9.3 19.2676 9.3V12.7C22.6915 12.7 25.4676 9.92388 25.4676 6.5H22.0676ZM19.2676 9.3C17.7215 9.3 16.4676 8.04612 16.4676 6.5H13.0676C13.0676 9.92388 15.8437 12.7 19.2676 12.7V9.3ZM16.4676 6.5C16.4676 4.95388 17.7215 3.7 19.2676 3.7V0.3C15.8437 0.3 13.0676 3.07612 13.0676 6.5H16.4676ZM8.26758 -0.2C5.12269 -0.2 2.56758 2.35512 2.56758 5.5H5.96758C5.96758 4.23288 7.00046 3.2 8.26758 3.2V-0.2ZM2.56758 5.5C2.56758 8.64488 5.12269 11.2 8.26758 11.2V7.8C7.00046 7.8 5.96758 6.76712 5.96758 5.5H2.56758ZM8.26758 11.2C11.4125 11.2 13.9676 8.64488 13.9676 5.5H10.5676C10.5676 6.76712 9.53469 7.8 8.26758 7.8V11.2ZM13.9676 5.5C13.9676 2.35512 11.4125 -0.2 8.26758 -0.2V3.2C9.53469 3.2 10.5676 4.23288 10.5676 5.5H13.9676ZM19.2676 1.8C16.6747 1.8 14.5676 3.90712 14.5676 6.5H17.9676C17.9676 5.78488 18.5525 5.2 19.2676 5.2V1.8ZM14.5676 6.5C14.5676 9.09288 16.6747 11.2 19.2676 11.2V7.8C18.5525 7.8 17.9676 7.21512 17.9676 6.5H14.5676ZM19.2676 11.2C21.8605 11.2 23.9676 9.09288 23.9676 6.5H20.5676C20.5676 7.21512 19.9827 7.8 19.2676 7.8V11.2ZM23.9676 6.5C23.9676 3.90712 21.8605 1.8 19.2676 1.8V5.2C19.9827 5.2 20.5676 5.78488 20.5676 6.5H23.9676Z" fill="#808080" mask="url(#path-1-inside-1_8099_3961)"/>
</svg>
